<mxfile host="app.diagrams.net" modified="2023-04-24T16:24:36.389Z" agent="Mozilla/5.0 (Macintosh; Intel Mac OS X 10_15_7) AppleWebKit/537.36 (KHTML, like Gecko) Chrome/112.0.0.0 Safari/537.36 Edg/112.0.1722.54" version="21.2.1" etag="swM21tLkiq4_zOZL316k" type="github">
  <diagram name="Page-1" id="9babx9tnE0YkvRarWt0D">
    <mxGraphModel>
      <root>
        <mxCell id="0" />
        <mxCell id="1" parent="0" />
      </root>
    </mxGraphModel>
  </diagram>
</mxfile>
